<svg class="dig-Illustration dig-Illustration-spot" viewBox="0 0 500 500" fill="none" xmlns="http://www.w3.org/2000/svg"><title></title><g fill="#B4724B"><path d="M156.563 214.905c-4.146-.204-8.072 1.004-12.076 1.782-2.889.563-5.828.761-8.778.822-1.279.028-2.581-.199-3.838.32-1.114.463-2.288.061-3.413.039-4.847-.078-9.672-.536-14.32-2.053-.59-.193-1.136-.634-1.605-1.065-1.571-1.451-3.766-2.173-5.073-3.856-2.239-2.885-4.885-5.511-5.768-9.324-.419-1.815-1.533-3.453-1.235-5.456.281-1.909.331-3.84 1.053-5.693 1.004-2.577 1.236-5.346 1.588-8.066.16-1.247-.424-2.544-1.169-3.504-1.295-1.666-2.111-3.575-3.154-5.368-.722-1.246-.915-2.537-.358-3.928.606-1.522.81-3.183 1.676-4.623.353-.585.243-1.263-.303-1.793-.767-.745-1.164-1.754-1.798-2.571-.965-1.236-.981-2.582-1.196-4.033-.397-2.736 1.643-3.829 3.16-4.987 2.04-1.567 2.79-3.746 1.394-6.085-1.202-2.02-3.187-3.151-4.968-4.508-1.643-1.252-2.928-2.852-4.152-4.469-1.103-1.45-1.053-3.354-1.047-5.064.016-5.269 1.615-10.074 4.67-14.388 1.191-1.678 1.803-3.669 2.663-5.512 1.153-2.466 2.608-4.745 3.899-7.111.932-1.711 2.525-3.046 3.622-4.684 1.941-2.908 4.026-5.843 3.899-9.556-.077-2.339-1.086-4.507-2.018-6.62-.871-1.986-1.257-4.088-1.5-6.168-.441-3.757-.585-7.564.287-11.288.507-2.168 1.615-4.17 2.762-6.057 4.301-7.079 8.751-14.069 13.085-21.12.844-1.368 1.908-2.554 2.967-3.685 2.856-3.056 5.575-6.267 8.844-8.926 3.888-3.156 7.742-6.361 11.619-9.528 3.06-2.505 6.363-4.662 9.649-6.852 3.072-2.053 6.391-3.481 9.915-4.546 2.883-.872 5.497-2.505 8.447-3.222 2.542-.624 5.046-1.429 7.736-1.275 1.886.11 3.75-.242 5.614-.546 1.792-.292 3.59.144 5.349.342 2.806.32 5.596.21 8.386.193 3.408-.022 6.722.249 9.92 1.54 3.022 1.219 6.325.998 9.446 1.754 1.858.452 3.529 1.274 5.15 2.201a8.16 8.16 0 0 0 4.257 1.093c3.044-.072 5.657.97 8.089 2.576a51.334 51.334 0 0 0 6.601 3.702c1.825.85 3.551 1.799 4.83 3.393.562.7 1.318.866 1.99.447.817-.502 1.313-.1 1.815.364 2.906 2.648 6.418 4.469 9.396 7.023 1.318 1.137 2.674 2.185 3.716 3.614.634.866 1.373 1.749 2.415 2.19 1.666.7 2.515 2.102 3.43 3.558 2.051 3.266 2.801 6.924 3.529 10.599.524 2.648 1.732 5.031 2.79 7.453 2.333 5.346 4.505 10.742 5.31 16.551.783 5.677 1.059 11.37.122 17.097-.695 4.243-.855 8.579-1.622 12.81-1.025 5.65-.887 11.459-2.387 17.015-1.362 5.037-3.259 9.903-6.474 14.068-1.549 2.008-3.485 3.746-5.381 5.457-2.338 2.113-4.516 4.358-6.672 6.653-2.664 2.83-5.592 5.401-8.349 8.143-1.092 1.087-2.029 2.323-3.038 3.492-.778.911-1.489 1.937-2.873 1.898-.474-.011-.546.337-.722.618-.673 1.076-1.031 2.251-1.037 3.514-.016 3.796.072 7.592.011 11.393-.055 3.167.816 6.334 1.092 9.522.292 3.36 1.318 6.566 1.831 9.881.275 1.793 1.124 3.515 1.808 5.23 1.059 2.649 2.068 5.335 3.331 7.89 2.316 4.695 4.086 9.654 7.912 13.577 2.195 2.251 4.384 4.298 7.152 5.76 1.594.838 3.331 1.114 5.046 1.357 6.087.855 12.224 1.032 18.367 1.054 1.092.005 2.189.22 3.264.424 1.826.348 3.403-.684 5.134-.871 3.033-.331 6.049-.806 9.071-1.208 2.624-.354 4.742-1.965 7.152-2.869 2.084-.784 4.289-1.231 6.286-2.317.915-.497 2.178-.359 2.883.612.949 1.313.982 2.874.309 4.292-1.367 2.88-3.203 5.456-5.437 7.746-2.288 2.35-4.527 4.739-6.854 7.045a47.55 47.55 0 0 1-4.262 3.763c-1.985 1.533-3.584 3.464-5.426 5.147-3.518 3.211-7.372 5.975-11.045 8.982-2.928 2.394-5.971 4.64-8.811 7.15-1.45 1.285-3.116 2.328-4.66 3.509-1.417 1.081-2.751 2.262-4.223 3.282-2.697 1.87-5.068 4.177-7.847 5.959-1.544.993-2.906 2.25-4.411 3.326-1.71 1.22-3.485 2.334-5.272 3.382-5.756 3.377-11.011 7.382-16.046 11.735-2.261 1.953-4.885 3.448-7.521 4.86-2.327 1.247-4.819 2.18-7.108 3.482-2.464 1.406-4.725 3.177-7.173 4.617-2.454 1.446-5.195 2.235-7.913 3.084-3.805 1.192-7.665 2.224-11.315 3.912-3.204 1.484-6.518 2.791-10.146 2.979-2.603.138-5.15.601-7.703 1.159-4.191.915-8.376.866-12.605-.144-2.311-.552-4.77-.48-7.158-.728-4.621-.486-9.241-.993-13.862-1.512-3.424-.386-6.766.397-10.146.651-3.187.237-6.385.414-9.584.502-1.588.044-2.983.773-4.521.96-3.22.397-6.358.149-9.507-.673-2.409-.629-4.918-.849-7.355-1.385-1.263-.275-2.355-1.103-3.331-1.892-1.582-1.28-2.911-2.902-4.422-4.22-3.468-3.035-3.777-6.759-3.05-10.781.436-2.411 1.528-4.601 3.248-6.455 2.603-2.808 5.559-5.18 8.68-7.376 1.455-1.026 3.269-1.269 4.758-2.201 4.207-2.643 8.983-3.713 13.758-4.342 3.926-.518 7.874-1.153 11.861-1.252 3.865-.1 7.631-.629 11.149-2.45 1.517-.783 3.281-.888 4.963-1.147 3.319-.513 5.646-2.582 7.846-4.855.254-.26.293-.729.431-1.098 1.571-.927 3.325-2.174 3.617-3.763.491-2.698 1.13-5.423 1.114-8.231-.011-1.865-.651-3.663-.574-5.462.105-2.494-.573-4.816-1.053-7.166a92.5 92.5 0 0 1-1.417-9.181c-.044-.447.038-.954-.276-1.296-1.092-1.192-.733-2.847-.628-4 .193-2.113-.8-3.84-1.219-5.655-.689-2.979-2.112-5.826-3-8.805-.182-.618-.595-.712-1.003-.568-.987.309-2.063.314-2.956.888zm64.416 161.841c.556-1.197 1.174-2.372 1.665-3.597.948-2.367 2.327-4.463 4.163-6.184 2.029-1.904 4.56-1.843 7.074-1.236.85.204 1.627.32 2.498.132.872-.187 1.859-.436 2.675-.209 2.735.75 4.654-.558 6.617-2.141 1.814-1.457 3.799-2.279 6.324-2.251 3.948.044 7.847.701 11.806.601 1.88-.044 3.871.53 5.608 1.435 2.117 1.098 3.468 2.819 3.402 5.649 1.23-1.263 2.007-2.427 3.297-3.084 1.732-.882 3.408-1.34 5.443-1.009 2.652.43 5.382.397 8.072.562 1.566.1 3.11.028 4.588-.557 1.307-.518 2.686-.21 4.02-.347 3.182-.337 6.363-.651 9.55-.889 2.366-.176 5.73 2.522 5.967 4.756.071.651-.304 1.252-.706 1.771-2.151 2.769-4.334 5.644-7.455 7.233-2.079 1.059-4.009 2.626-6.689 2.642-2.09.011-4.196.828-6.258 1.369-3.171.833-6.518 1.241-9.457 2.753-3.314 1.704-6.446 3.734-6.639 8.087-.005.1.011.232-.039.293-1.99 2.289-1.45 5.318-2.354 7.917-.386 1.114.044 2.19-.177 3.271-.7 3.465-1.466 6.919-2.001 10.411-.309 2.008-.59 4.082-.055 6.113.435 1.655 1.913 2.51 3.082 3.564.513.463.827-.309 1.125-.662 2.139-2.522 3.617-5.49 5.486-8.199 1.759-2.554 3.728-4.91 5.779-7.205a95.975 95.975 0 0 1 2.978-3.178c2.895-2.951 6.341-4.733 10.515-5.103 1.445-.127 2.879-.347 4.334-.314 1.379.027 2.537.557 3.474 1.544.888.938 1.257 1.964.778 3.289-1.274 3.503-3.121 6.576-5.779 9.257-1.726 1.738-3.104 3.823-4.125 6.163-1.174 2.686-3.054 5.02-4.422 7.641-1.29 2.482-2.222 5.103-3.314 7.646-1.797 4.193-1.152 8.695-2.487 12.915-.573 1.821-.353 4.022-.634 6.03-.452 3.2-.121 6.494-1.086 9.628-1.467 4.766-3.397 9.29-6.297 13.417-3.149 4.474-6.082 9.114-10.19 12.794-2.851 2.554-6.027 4.601-9.683 5.947-3.342 1.225-6.782 2.08-10.146 3.2a6.14 6.14 0 0 1-2.2.331c-2.443-.077-4.803.546-7.196.822-2.801.32-5.702.287-8.541-.248-5.173-.971-10.334-1.986-15.418-3.333-2.658-.706-5.315-1.064-8.039-1.169-1.362-.05-2.581.64-3.959.634-3.904-.016-7.654-.711-11.42-1.771-3.116-.877-5.531-2.824-7.571-4.915-3.204-3.288-4.775-7.597-5.453-12.22-.397-2.687-.039-5.379-.48-8.061-.337-2.041.138-4.022.888-5.98 1.246-3.255 3.126-6.301 3.766-9.732.59-3.167 1.803-6.124 2.658-9.191.832-2.98 1.637-5.964 2.349-8.971 1.648-6.974 2.47-14.085 2.856-21.213.165-3.023.116-6.091.077-9.13-.039-2.93.342-5.837-.011-8.817-.518-4.386-.347-8.854-.474-13.29-.044-1.473.16-2.907.695-4.276.446-1.136.7-2.289.623-3.519-.017-.293-.028-.69.138-.872 1.417-1.55 1.968-3.713 3.551-5.114 2.586-2.295 5.249-4.502 7.14-7.459 1.225-1.909 3.347-2.913 4.687-4.795 1.009-1.417 1.903-2.935 2.983-4.286 2.438-3.035 4.903-6.036 6.976-9.346.684-1.092 1.88-1.661 2.911-2.334 2.537-1.666 5.139-3.161 7.99-4.369 3.788-1.606 7.819-2.483 11.541-4.237 2.029-.96 4.764.932 4.869 3.42.276 6.483-1.902 11.051-8.315 14.063-2.382 1.12-5.101 1.898-6.887 3.851-1.566 1.71-3.673 3.299-3.744 6.03-.006.292-.05.618-.182.877-2.057 4.077-3.22 8.618-6.446 12.088-1.169 1.263-1.379 2.885-1.109 4.524.144.044.282.094.42.143z"></path><path d="M156.563 214.905c.893-.574 1.969-.58 2.939-.922.414-.143.822-.05 1.004.568.887 2.979 2.31 5.821 2.999 8.805.419 1.815 1.412 3.548 1.219 5.655-.105 1.153-.463 2.808.629 4 .314.342.231.844.275 1.297a92.73 92.73 0 0 0 1.417 9.18c.48 2.35 1.164 4.673 1.054 7.166-.078 1.793.562 3.592.573 5.462.017 2.808-.623 5.534-1.114 8.232-.287 1.589-2.046 2.835-3.617 3.762-.32-1.55-.028-3.089.138-4.623.827-7.619-.414-15.133-.905-22.697-.529-8.182-3.402-15.668-5.855-23.304-.271-.855-.502-1.72-.756-2.581z"></path></g>
<path d="M288.724 352.867c-.843-1.07-1.83-2.074-2.536-3.25-3.744-6.234-8.795-11.42-13.449-16.926-6.578-7.784-13.923-14.818-21.262-21.869-6.871-6.598-13.708-13.224-21.279-19.028-3.976-3.051-7.99-6.234-12.793-7.774-11.001-3.525-21.952-7.337-33.779-7.205-3.055.033-6.138-.855-9.17-1.484-4.307-.894-8.762-1.462-12.821-3.034-6.44-2.499-10.724-7.498-13.377-13.881-1.963-4.722-2.073-9.572-.965-14.465 1.285-5.666 4.461-9.986 9.622-12.767.353-.187.734-.32 1.114-.458 3.287-1.186 4.003-.772 4.5 2.621-.072.066-.144.188-.215.188-3.369-.039-5.95 1.666-8.134 3.95-1.102 1.153-2.128 2.582-2.619 4.071-2.029 6.13-1.742 12.281 1.395 17.914 3.518 6.322 8.503 11.183 15.964 12.645 7.311 1.429 14.579 3.067 22.106 3.233 7.102.154 13.983 1.782 20.76 3.9 2.432.762 4.974 1.186 7.406 1.959 6.015 1.925 11.144 5.473 15.946 9.423 12.909 10.626 24.72 22.41 35.87 34.851 2.939 3.282 5.646 6.774 8.458 10.173.337.408.689.805 1.279 1.495-.661-3.233-1.279-6.052-1.819-8.888-2.691-14.134-3.298-28.335-1.544-42.646 1.086-8.838.595-17.721.132-26.581-.209-4-.248-8.044-.899-11.977-.904-5.49-2.453-10.841-5.387-15.685-1.66-2.737-2.972-5.716-4.874-8.259-1.644-2.196-3.888-3.939-5.9-5.848-.276-.259-.739-.314-1.12-.463.144-.243.281-.491.425-.734.65-.088 1.406-.436 1.924-.215 1.395.59 2.895 1.197 3.987 2.195 8.039 7.349 11.999 16.932 14.022 27.315.943 4.827.656 9.886 1.092 14.824 1.059 12.066-.469 24.027-1.362 36.015-.529 7.139.353 14.217 1.114 21.29.998 9.252 2.807 18.327 6.187 27.028.717 1.848 1.775 3.58 2.795 5.296 1.015 1.705 1.076 1.666-.794 3.051zm30.118-129.599c.844-.53 1.616-1.06 2.432-1.512 2.492-1.368 4.99-2.72 7.504-4.049 3.794-2.003 7.698-3.813 11.376-6.008 8.232-4.905 16.768-8.899 26.335-10.45 5.718-.926 11.354-2.422 17.094-3.172 7.069-.927 14.171-.579 21.246.486 8.15 1.224 15.88 3.63 23.126 7.597 3.165 1.732 5.889 3.972 8.282 6.648 6.468 7.221 13.73 13.61 21.124 19.828 4.285 3.602 8.955 6.741 13.422 10.134.827.629 1.621 1.385 2.2 2.235 3.06 4.513 6.054 9.075 9.065 13.621.938 1.418 1.732 2.952 2.801 4.265 4.312 5.307 6.909 11.398 8.944 17.88 1.792 5.705 2.663 11.459 2.928 17.395.221 5.043.871 10.063 1.296 15.1.055.684-.039 1.402-.177 2.08-.055.27-.468.695-.634.662-.319-.072-.606-.392-.854-.662-.116-.127-.127-.364-.149-.557-.403-3.47-.888-6.94-1.175-10.422a273.62 273.62 0 0 1-.717-11.999c-.215-5.6-2.139-10.769-3.722-16.043-1.582-5.275-4.24-9.909-7.57-14.234-1.28-1.661-2.316-3.509-3.48-5.258-2.58-3.873-4.913-7.944-7.841-11.536-2.079-2.554-4.929-4.491-7.505-6.626-1.499-1.241-3.187-2.262-4.698-3.492-3.611-2.935-7.262-5.837-10.724-8.938-4.737-4.242-9.529-8.452-13.89-13.064-3.557-3.762-7.83-6.019-12.528-7.679-13.725-4.855-27.786-5.617-42.051-3.134-6.01 1.043-12.032 2.118-17.937 3.619-7.169 1.821-13.78 5.081-20.237 8.684-3.347 1.864-6.948 3.282-10.444 4.882-3.088 1.413-6.203 2.775-9.28 4.21-1.373.623-2.57.734-3.562-.491zM.023 412.501c-.276-5.01 2.045-8.921 3.325-13.136 2.012-6.654 3.92-13.335 5.993-19.966.563-1.788 1.335-3.603 2.416-5.12 3.771-5.307 6.087-11.348 9.054-17.064 3.655-7.045 7.267-14.101 13.019-19.856 2.845-2.852 4.835-6.543 7.333-9.765 9.214-11.894 20.419-21.621 33.04-29.698 4.682-2.995 9.722-5.268 15.352-6.223 3.722-.629 7.312-2.058 10.962-3.133 3.783-1.115 7.56-2.235 11.773-3.476-1.153.689-1.919 1.269-2.774 1.649-6.452 2.864-12.93 5.606-19.922 6.99-4.82.955-9.132 3.316-13.256 5.898-10.692 6.681-20.11 14.885-28.585 24.209-3.938 4.33-7.042 9.202-9.948 14.25-1.014 1.76-2.487 3.25-3.617 4.949-2.233 3.371-4.367 6.813-6.55 10.217-4.484 6.99-8.956 13.986-13.455 20.965-2.487 3.862-3.551 8.264-4.753 12.589-2.223 7.995-3.926 16.149-7.274 23.79-.363.794-1.411 1.291-2.133 1.931zm364.062-72.041c1.191.16 1.274 1.015 1.197 1.804-.276 2.841-.474 5.699-.982 8.502-1.929 10.697-3.677 21.444-6.043 32.048-2.277 10.212-5.117 20.302-7.929 30.387a4010.102 4010.102 0 0 1-14.061 49.124c-1.941 6.631-4.263 13.147-6.419 19.717-.292.894-.694 1.711-2.244 1.413.331-1.131.678-2.202.965-3.288.827-3.145 1.583-6.312 2.459-9.446 3.055-10.951 6.176-21.891 9.225-32.842 2.851-10.229 5.73-20.446 8.432-30.713 3.049-11.575 6.109-23.155 8.795-34.818 2.404-10.444 4.312-21.003 6.44-31.513.017-.094.077-.182.165-.375zM149.526 460.023c-.518-4.22-1.064-8.275-1.516-12.347-1.246-11.348-2.63-22.68-3.623-34.051-.97-11.122-1.533-22.283-2.239-33.427-.088-1.396.006-2.808.138-4.204.044-.48.408-1.258.739-1.319.822-.154 1.61.177 1.737 1.203.21 1.688.419 3.382.59 5.076 1.412 14.101 2.934 28.192 4.169 42.31.794 9.02 1.257 18.079 1.671 27.127.148 3.221-.331 6.465-1.666 9.632zm-26.258 39.729c-2.293.474-2.354.458-3.093-1.788-5.52-16.799-11.177-33.548-16.498-50.414-3.237-10.261-5.989-20.683-8.872-31.055-.64-2.306-.96-4.711-1.318-7.084-.15-.976-.16-2.024.05-2.979.115-.529.815-1.263 1.279-1.285.595-.028 1.455.425 1.77.932.474.761.579 1.76.513 2.775-.359-.756-.717-1.512-1.076-2.262l-.27.05c0 .513-.1 1.048.017 1.528 1.56 6.521 2.856 13.13 4.797 19.536 4.902 16.148 10.085 32.213 15.18 48.301 2.404 7.591 4.869 15.166 7.301 22.746.121.326.154.668.22.999zm266.094-139.641c-.193-1.241-.612-2.494-.535-3.713.325-5.186.562-10.394 1.274-15.53 1.163-8.441 2.029-16.899 2.255-25.417.005-.298.072-.59.116-.932 1.279-.022 1.72.789 1.742 1.809.099 5.346.441 10.709.149 16.033-.469 8.562-2.255 16.953-4.18 25.301-.182.8-.275 1.616-.408 2.427a9.518 9.518 0 0 1-.413.022z" fill="currentColor"></path>
<g fill="#1E1919">
<path d="M 279.742 77.438 c 0.27 -0.844 0.54 -1.688 0.81 -2.527 c 2.079 0.171 3.254 1.296 3.276 3.283 c 0.027 2.13 0.027 4.264 -0.155 6.377 c -0.06 0.69 -0.705 1.335 -1.102 1.992 c -0.116 0.193 -0.359 0.325 -0.447 0.53 c -1.086 2.548 -2.151 5.103 -3.259 7.745 c 0.088 0.044 0.524 0.276 0.971 0.47 c 1.075 0.463 1.764 1.08 1.312 2.416 c -0.149 0.447 -0.171 1.037 -0.006 1.467 c 1.611 4.166 0.232 8.088 -1.047 11.978 c -0.149 0.458 -1.252 0.601 -1.908 0.888 c -0.094 -0.138 -0.188 -0.281 -0.281 -0.419 c -0.293 0.777 -0.579 1.561 -0.85 2.284 c 1.418 1.07 2.774 2.096 4.252 3.205 c -3.215 3.901 -6.204 7.525 -9.187 11.15 c -0.066 0.077 -0.126 0.154 -0.204 0.221 c -1.753 1.517 -3.341 3.712 -6.038 1.219 c -0.694 1.572 -1.295 2.929 -1.902 4.297 c 1.357 0.944 2.608 1.716 4.136 0.337 c -0.53 0.717 -1.021 1.468 -1.599 2.146 c -3.033 3.525 -6.083 7.04 -9.148 10.538 c -0.861 0.982 -1.748 1.991 -3.325 1.428 c -0.221 -0.077 -0.596 0.199 -0.872 0.359 c -0.253 0.144 -0.518 0.552 -0.689 0.508 c -1.643 -0.409 -1.99 0.971 -2.597 1.881 c -1.864 2.808 -3.661 5.655 -5.387 8.325 c 0.182 -0.894 0.408 -2.025 0.65 -3.227 c -0.468 -0.177 -0.871 -0.326 -1.45 -0.541 c -0.171 3.299 -0.441 6.444 0.728 9.462 c 0.226 0.579 0.904 0.976 1.379 1.462 c -1.313 1.296 -3.314 0.386 -5.658 -2.737 c 0.226 2.615 0.458 5.28 0.7 8.099 c 1.963 0.254 2.68 1.732 3.188 3.542 c 0.534 1.909 1.312 3.746 1.698 5.876 c -0.926 -0.828 -1.847 -1.661 -2.906 -2.615 c -0.182 1.528 -0.32 2.957 -0.54 4.375 c -0.204 1.335 -0.431 2.675 -0.772 3.977 c -0.133 0.502 -0.761 1.346 -0.899 1.297 c -0.662 -0.237 -1.252 -0.701 -1.814 -1.148 c -0.155 -0.121 -0.215 -0.48 -0.182 -0.706 c 0.546 -3.724 -2.526 -6.482 -2.686 -10.03 c -0.011 -0.243 -0.507 -0.612 -0.827 -0.667 c -4.996 -0.9 -5.85 -2.775 -6.484 -8.629 c -0.138 -1.28 -0.022 -2.587 -0.022 -4.248 c -4.516 2.885 -8.862 5.092 -13.791 2.24 c 2.685 -1.23 5.271 -2.367 7.808 -3.597 c 2.376 -1.148 3.931 -3.051 4.692 -5.583 c 0.475 -1.584 1.015 -3.156 1.351 -4.767 c 0.723 -3.41 2.46 -6.196 4.924 -8.596 c 1.826 -1.782 3.695 -3.536 5.377 -5.45 c 1.941 -2.213 2.674 -4.905 2.327 -7.834 c -0.337 -2.88 -1.379 -5.512 -2.868 -8.006 c -1.411 -2.372 -3.755 -2.99 -6.154 -3.58 c -4.857 -1.192 -9.528 -0.988 -13.895 1.765 c -1.649 1.043 -3.005 2.284 -3.805 4.122 c -0.518 1.186 -1.213 2.3 -1.897 3.403 c -0.171 0.271 -0.683 0.569 -0.931 0.492 c -0.37 -0.111 -0.817 -0.486 -0.938 -0.85 c -0.794 -2.389 2.68 -10.361 5.068 -11.376 c 1.566 -0.662 3.291 -0.955 4.946 -1.412 c 0.474 -0.133 0.954 -0.249 1.428 -0.37 c -0.088 -2.814 0.744 -5.837 -2.73 -7.591 c -0.849 1.164 -1.836 2.51 -2.806 3.861 c -1.202 1.672 -2.537 2.941 -4.886 2.34 c -1.544 -0.398 -2.294 -0.922 -2.139 -2.544 c 0.298 -3.078 0.81 -6.14 1.251 -9.208 c 0.111 -0.783 0.293 -1.56 0.524 -2.797 c -1.819 2.279 -3.347 4.21 -4.891 6.124 a 115.368 115.368 0 0 1 -2.779 3.36 c -2.288 2.637 -3.038 2.819 -6.589 1.578 c -0.105 1.523 -0.204 2.985 -0.325 4.778 c 1.047 -0.458 1.836 -0.811 2.63 -1.153 c 2.205 -0.944 6.286 0.463 7.345 2.576 c 0.192 0.381 0.297 0.894 0.209 1.302 c -0.557 2.681 -1.18 5.346 -1.787 8.033 c -2.773 -0.982 -3.655 -2.284 -4.538 -6.593 c -2.911 0.883 -5.161 -0.668 -7.24 -2.279 c -2.156 -1.666 -1.919 -4.204 -1.544 -6.543 c 0.75 -4.684 1.638 -9.351 2.531 -14.013 c 0.094 -0.49 0.607 -0.905 0.927 -1.352 c 0.446 0.337 0.899 0.673 1.389 1.043 c 0.414 -0.463 0.927 -1.517 1.704 -1.782 c 0.75 -0.254 1.776 0.304 2.856 0.546 c 0.166 -0.281 0.431 -0.744 0.712 -1.197 c 0.264 -0.425 0.54 -0.838 0.843 -1.302 c -2.569 -2.896 -2.42 -6.218 -1.439 -9.594 c 1.55 -5.351 4.472 -10.019 7.538 -14.598 c 0.11 -0.16 0.215 -0.325 0.447 -0.69 c -2.73 0.403 -4.77 1.777 -6.739 3.256 c -1.108 0.833 -2.122 0.899 -3.302 0.176 c -0.872 -0.53 -1.214 -1.203 -0.844 -2.13 c 0.535 -1.346 1.136 -2.67 1.731 -3.988 c 0.519 -1.142 1.042 -2.157 0.982 -3.592 c -0.05 -1.23 0.97 -2.549 1.643 -3.762 c 3.319 -5.98 8.233 -10.637 12.953 -15.448 c 1.152 -1.175 2.371 -2.278 3.595 -3.454 c 0.943 0.376 0.827 0.95 0.22 1.656 c -2.542 2.957 -5.139 5.864 -7.576 8.904 c -2.189 2.725 -4.213 5.589 -6.275 8.419 c -0.392 0.54 -0.623 1.197 -0.684 1.986 c 2.333 -1.76 4.593 -3.63 7.014 -5.258 c 3.728 -2.504 7.565 -4.844 11.348 -7.266 c 0.811 -0.518 1.445 -0.37 2.14 0.27 c 0.716 0.668 0.81 1.364 0.347 2.141 c -1.66 2.797 -3.38 5.55 -5.001 8.37 c -1.765 3.067 -3.441 6.184 -5.117 9.208 c 3.082 1.048 5.062 -1.32 7.504 -1.959 l 0.331 0.48 c -1.318 1.208 -2.669 2.383 -3.937 3.641 c -0.97 0.96 -2.062 1.898 -2.707 3.068 a 54.401 54.401 0 0 0 -3.259 7.083 c -0.678 1.821 -0.827 3.835 -1.456 5.677 c -0.579 1.694 -1.395 3.322 -2.266 4.894 c -1.362 2.46 -1.417 2.433 -4.163 1.81 c -1.561 2.526 -3.43 4.998 -4.654 7.756 c -0.64 1.446 -1.439 2.781 -2.051 4.182 c -0.69 1.567 -0.061 3.399 0.711 5.407 c 1.831 -2.262 3.545 -4.199 5.056 -6.284 a 333.213 333.
213 0 0 0 7.582 -10.979 c 0.921 -1.39 1.98 -0.772 3.038 -0.502 c 1.18 0.304 0.778 1.23 0.646 1.98 c -0.883 4.922 -1.798 9.838 -2.68 14.759 c -0.127 0.706 -0.149 1.434 -0.061 2.289 c 2.266 -3.183 4.307 -6.697 9.01 -4.027 c 0.689 -2.091 0.077 -3.658 -1.759 -4.425 c -0.91 -0.38 -1.378 -0.943 -1.301 -1.936 c 0.132 -1.694 0.22 -3.393 0.402 -5.081 c 0.232 -2.08 0.48 -4.16 0.861 -6.213 c 0.11 -0.59 0.65 -1.5 1.075 -1.55 c 0.932 -0.105 1.797 0.47 1.764 1.584 c -0.033 1.34 -0.248 2.68 -0.358 4.021 c -0.21 2.494 -0.43 4.982 -0.579 7.482 c -0.028 0.435 0.281 0.899 0.43 1.346 c 0.149 -0.039 0.298 -0.078 0.447 -0.11 c 0.463 -1.987 0.893 -3.973 1.411 -5.942 c 0.094 -0.365 0.546 -0.635 0.833 -0.95 c 0.226 0.403 0.678 0.823 0.645 1.198 c -0.419 4.783 -0.926 9.555 -1.356 14.333 c -0.105 1.164 -0.017 2.35 -0.017 3.525 c 0.198 0.033 0.397 0.072 0.59 0.105 c 0.965 -3.271 2.062 -6.51 2.862 -9.82 c 1.092 -4.518 1.957 -9.092 2.906 -13.644 c 0.215 -1.031 0.386 -2.002 1.852 -1.732 c 0.221 0.039 0.646 -0.37 0.783 -0.657 c 2.361 -5.13 4.687 -10.272 7.02 -15.408 c 0.039 -0.083 0.016 -0.188 -0.281 -0.596 c -0.502 0.612 -1.02 1.208 -1.495 1.837 c -0.468 0.612 -0.893 1.258 -1.34 1.887 c -0.148 -0.11 -0.292 -0.227 -0.441 -0.337 c 1.484 -1.848 2.945 -3.718 4.489 -5.517 c 0.154 -0.176 0.965 -0.083 1.18 0.15 c 0.397 0.43 0.832 1.075 0.799 1.6 c -0.055 0.816 -0.457 1.627 -0.777 2.41 c -1.434 3.52 -2.89 7.029 -4.334 10.543 c -0.16 0.397 -0.287 0.811 -0.122 1.352 c 1.429 -2.786 2.829 -5.59 4.301 -8.353 c 0.822 -1.545 1.682 -3.079 2.68 -4.508 c 0.392 -0.557 1.296 -1.219 1.82 -1.114 c 1.081 0.22 2.035 1.026 1.913 2.334 a 86.425 86.425 0 0 1 -0.766 5.953 c -0.667 4.093 -1.401 8.176 -2.
084 12.27 c -0.089 0.523 -0.011 1.08 -0.011 1.616 c 0.132 0.088 0.259 0.176 0.391 0.26 c 0.64 -0.735 1.483 -1.375 1.88 -2.224 c 1.401 -2.985 2.614 -6.058 3.971 -9.06 c 0.838 -1.864 1.775 -3.69 2.729 -5.5 c 0.601 -1.147 1.379 -1.98 2.614 -0.634 c 0.788 -1.214 1.516 -2.323 2.216 -3.448 c 0.089 -0.144 0.067 -0.386 0.039 -0.58 c -0.27 -2.068 -0.551 -4.132 -0.827 -6.206 c -1.803 1.28 -3.673 2.66 -5.597 3.956 c -1.902 1.285 -2.454 1.23 -4.45 -0.177 s -2.41 -2.196 -1.82 -4.27 c 0.811 -2.836 1.771 -5.627 2.664 -8.44 c 0.116 -0.37 0.209 -0.74 0.441 -1.557 c -1.682 1.766 -3.011 3.239 -4.417 4.629 c -2.906 2.863 -4.731 2.775 -7.218 -0.524 c -0.502 -0.662 -0.617 -1.97 -0.347 -2.803 c 0.86 -2.659 1.979 -5.235 3.01 -7.834 c 0.276 -0.695 0.618 -1.357 0.767 -2.229 c -1.643 1.159 -3.281 2.323 -4.924 3.481 c -0.447 0.32 -0.882 0.657 -1.335 0.971 c -1.781 1.23 -2.922 1.065 -4.102 -0.744 c -0.27 -0.414 -0.314 -1.18 -0.127 -1.65 c 1.015 -2.554 2.14 -5.065 3.231 -7.591 c 0.171 -0.392 0.364 -0.773 0.728 -1.528 c -2.283 1.61 -4.201 3.006 -6.17 4.341 c -0.656 0.447 -1.395 0.79 -2.134 1.082 c -1.373 0.551 -2.266 -0.298 -3.149 -1.164 c -0.81 -0.79 -0.639 -1.688 -0.159 -2.483 c 3.099 -5.18 6.109 -10.427 9.434 -15.464 c 1.423 -2.152 2.807 -4.193 3.193 -7.084 c -1.98 1.424 -3.755 2.742 -5.575 3.994 c -1.809 1.253 -3.689 2.395 -5.481 3.675 c -1.257 0.899 -1.797 -0.089 -2.454 -0.79 c -0.794 -0.849 0.1 -1.218 0.557 -1.66 c 1.285 -1.241 2.603 -2.45 3.739 -3.978 c -1.528 0.502 -3.049 1.038 -4.588 1.507 c -1.147 0.347 -2.305 0.684 -3.479 0.904 c -2.024 0.381 -3.689 -0.082 -4.969 -1.92 c -1.146 -1.644 -0.198 -2.813 0.701 -4.275 c -1.263 0.198 -2.327 0.364 -3.386 0.524 l 0.37 0.353 c -0.386 0.673 -0.64 1.495 -1.186 1.992 c -2.211 2.013 -4.51 3.928 -6.639 6.206 c 1.572 -0.281 3.143 -0.59 4.72 -0.833 c 3.562 -0.546 5.928 0.927 6.722 4.232 c 0.97 -0.133 1.946 -0.32 2.933 -0.386 a 8.6 8.6 0 0 1 2.983 0.286 c -0.518 0.387 -0.981 0.938 -1.566 1.12 c -3.098 0.977 -6.197 2.003 -9.368 2.66 c -0.717 0.149 -1.726 -1.104 -2.84 -1.882 c 1.522 -1.158 2.653 -2.024 3.783 -2.885 c -0.017 -0.1 -0.028 -0.193 -0.044 -0.293 c -0.596 0.04 -1.213 -0.016 -1.787 0.122 c -3.01 0.734 -6.01 1.545 -9.021 2.278 c -1.296 0.315 -3.507 -1.153 -3.562 -2.455 c -0.022 -0.518 0.469 -1.202 0.921 -1.572 c 2.867 -2.334 5.795 -4.607 8.701 -6.89 c 0.375 -0.299 0.772 -0.564 1.031 -1.132 c -2.349 0.59 -4.703 1.175 -7.052 1.766 c 0.088 0.104 0.171 0.21 0.259 0.32 c -0.507 0.59 -0.91 1.351 -1.544 1.743 c -2.763 1.716 -5.58 3.343 -8.398 4.97 c -1.941 1.12 -2.2 1.021 -3.446 -1.23 c 2.112 -1.24 4.235 -2.488 6.352 -3.734 c -0.044 -0.127 -0.094 -0.254 -0.138 -0.381 c -3.137 0.778 -6.28 1.55 -9.418 2.34 c -0.777 0.192 -1.538 0.59 -2.316 0.617 c -0.711 0.022 -1.428 -0.337 -2.145 -0.519 c -0.656 -0.165 -1.329 -0.496 -1.974 -0.452 c -2.139 0.143 -4.279 0.656 -6.391 0.557 c -1.285 -0.06 -2.613 -0.844 -3.766 -1.55 c -1.053 -0.646 -1.748 -1.683 -0.755 -3.272 c -2.642 0.618 -4.935 1.297 -7.284 1.661 c -2.162 0.336 -4.379 0.441 -6.568 0.414 c -0.926 -0.011 -1.88 -0.574 -2.757 -1.015 c -0.314 -0.16 -0.446 -0.684 -0.661 -1.043 c 0.452 -0.254 0.887 -0.679 1.356 -0.723 c 0.673 -0.06 1.379 0.155 2.217 0.27 c -0.712 0.16 -1.302 0.287 -1.897 0.42 c 0.033 0.182 0.071 0.37 0.105 0.552 c 2.007 -0.32 4.036 -0.52 6.01 -0.977 c 4.378 -1.015 8.723 -2.18 13.096 -3.222 c 1.158 -0.276 2.376 -0.325 3.562 -0.474 c 2.057 -0.26 2.873 0.17 4.075 2.284 c -3.27 0.612 -6.33 1.61 -8.994 4.347 c 6.358 0.154 11.663 -2.521 17.304 -3.752 c -0.838 -2.466 -0.579 -3.095 1.665 -4.341 c 0.651 -0.359 1.307 -0.707 1.946 -1.28 c -1.841 0.115 -3.689 0.226 -5.53 0.353 c -2.846 0.187 -5.696 0.353 -8.536 0.59 c -1.875 0.155 -3.38 -0.447 -4.356 -2.052 c -0.552 -0.905 -1.18 -1.015 -2.112 -0.75 c -5.288 1.478 -10.604 2.885 -15.881 4.413 c -1.224 0.353 -2.277 1.015 -2.757 2.494 c -0.209 0.64 -1.362 0.976 -2.371 1.633 c 0.474 -1.655 0.546 -3.25 1.34 -4.298 c 0.833 -1.103 2.261 -2.003 3.606 -2.422 c 3.436 -1.06 6.965 -1.798 10.455 -2.665 a 69.41 69.41 0 0 0 1.483 -0.402 c -0.176 -0.569 -0.336 -1.076 -0.551 -1.771 c 1.081 -0.227 2.106 -0.353 3.082 -0.657 c 3.48 -1.076 6.921 -2.284 10.422 -3.294 c 1.511 -0.435 3.115 -0.628 4.692 -0.717 c 0.739 -0.038 1.848 0.199 2.19 0.712 c 0.766 1.148 1.665 0.717 2.602 0.695 c 1.313 -0.039 2.63 -0.01 3.728 -0.01 c 0.408 -0.47 0.728 -1.182 1.207 -1.33 c 5.945 -1.777 11.993 -2.262 18.042 -0.723 c 0.938 0.237 1.566 1.693 2.647 2.946 c 6.077 0.49 12.115 3.288 18.406 5.18 c 0.315 0.094 0.894 0.249 0.954 0.144 c 0.899 -1.545 1.903 -0.508 2.614 0.022 c 3.457 2.549 7.339 4.248 11.205 6.03 c 1.345 0.623 2.36 1.942 3.567 2.89 c 0.441 0.343 0.993 0.569 1.528 0.762 c 0.904 0.331 1.952 0.414 2.729 0.916 c 3.347 2.185 6.6 4.518 9.931 6.736 c 3.319 2.207 5.503 5.434 6.689 8.998 c 0.606 1.827 0.468 4.138 0.948 6.185 a 445.778 445.778 0 0 0 2.823 11.376 c 0.127 0.49 0.596 0.949 1.004 1.307 c 0.943 0.834 1.841 1.6 2.178 2.952 c 1.29 5.241 2.702 10.45 4.031 15.68 c 0.154 0.612 0.104 1.28 0.182 2.333 c -2.327 -3.305 -3.353 -6.67 -4.351 -10.118 c 0.193 1.55 0.474 3.095 0.568 4.65 c 0.121 2.07 0.072 4.155 0.165 6.23 c 0.017 0.374 0.375 0.728 0.574 1.097 c 0.016 0.028 -0.011 0.094 -0.039 0.122 c -0.033 0.038 -0.083 0.055 -0.132 0.077 c -0.237 1.434 -0.469 2.869 -0.734 4.463 l -0.623 -1.302 c -0.402 3.194 -0.761 6.03 -1.119 8.866 c 0.154 0.038 0.309 0.083 0.463 0.121 c 0.452 -1.44 1.109 -2.852 1.318 -4.33 c 0.375 -2.588 0.48 -5.209 0.695 -7.818 Z m -67.779 -69.95 c 0.601 -0.447 1.207 -0.888 1.93 -1.423 h -3.546 l 1.665 1.384 c 0.248 0.729 0.502 1.451 0.838 2.444 c -5.15 1.402 -10.212 2.775 -15.274 4.155 c 4.224 -0.624 8.354 -1.617 12.517 -2.395 c 2.167 -0.402 4.489 -1.065 6.551 0.342 c 1.533 1.043 2.934 0.552 4.433 0.056 c 2.498 -0.828 5.018 -1.584 7.858 -2.472 c -5.757 -2.124 -11.254 -3.018 -16.972 -2.091 Z m 64.288 94.798 c 0.524 -2.245 1.043 -4.496 1.484 -6.372 c -1.566 -1.092 -2.752 -1.925 -3.981 -2.786 c -0.458 1.02 -0.982 2.306 -1.616 3.537 c -0.336 0.65 -0.607 1.191 -1.577 0.286 c -1.169 -1.08 -1.191 -2.179 -1.026 -3.508 c 0.193 -1.54 0.331 -3.079 0.491 -4.618 c -2.889 5.693 -4.406 11.894 -7.543 17.389 c -2.647 -1.009 -2.823 -1.368 -2.046 -3.834 c 0.182 -0.574 0.397 -1.131 0.601 -1.694 c 1.825 -5.13 3.705 -10.25 5.448 -15.409 c 0.546 -1.621 0.733 -3.37 1.086 -5.092 c -1.621 -0.154 -2.261 0.31 -3.237 2.086 c 0.171 -2.257 1.947 -3.481 3.816 -2.682 v -4.816 c -0.673 0.717 -1.318 1.986 -2.062 2.047 c -0.904 0.077 -1.897 -0.855 -2.647 -1.247 c -0.446 3.807 -0.816 7.625 -1.373 11.42 c -0.469 3.19 -1.086 6.361 -1.77 9.511 c -0.452 2.075 -1.13 4.094 -1.764 6.334 c -0.701 -0.364 -1.219 -0.546 -1.638 -0.855 c -1.45 -1.065 -2.2 -0.993 -2.939 0.651 c -1.654 3.696 -3.209 7.442 -4.742 11.194 c -0.425 1.037 -0.629 2.163 -0.932 3.249 c 0.513 -0.226 0.733 -0.551 0.948 -0.877 c 1.881 -2.825 3.772 -5.649 5.641 -8.479 c 0.866 -1.308 1.958 -1.38 3.353 -0.635 c -1.081 3.735 -2.983 7.255 -3.154 11.249 c 0.518 -0.298 0.86 -0.662 1.07 -1.087 a 856.96 856.96 0 0 0 4.576 -9.274 c 0.855 -1.76 1.599 -1.98 3.469 -0.849 c -0.508 1.997 -0.965 4.044 -1.555 6.046 c -0.304 1.015 -0.149 1.6 0.959 1.804 c 1.737 -2.063 3.496 -4.11 5.2 -6.201 c 0.331 -0.408 0.524 -0.971 0.651 -1.495 c 0.468 -1.975 0.926 -3.955 1.306 -5.953 c 0.315 -1.644 1.401 -2.002 2.906 -1.953 c -0.033 0.497 -0.066 0.933 -0.093 1.369 l -1.396 5.781 c 0.188 0.033 0.381 0.072 0.568 0.105 l 0.794 -5.92 c 0.26 -0.535 0.469 -1.103 0.794 -1.594 c 0.204 -0.303 0.629 -0.706 0.877 -0.662 c 0.303 0.055 0.695 0.508 0.756 0.844 c 0.187 0.993 0.231 2.014 0.336 3.029 l -0.612 -0.706 l -0.601 5.809 c 0.16 0.017 0.32 0.039 0.48 0.055 c 0.226 -1.732 0.463 -3.464 0.694 -5.197 Z m -1.345 -37.151 c 1.092 0.16 1.401 -0.077 1.186 -1.037 a 296.593 296.593 0 0 0 -2.377 -9.76 c -0.96 -3.69 -1.985 -7.36 -3.099 -11.47 c -0.21 3.962 -0.397 7.476 -0.584 11.056 c -2.223 -0.645 -3.188 -1.837 -2.984 -3.724 c 0.497 -4.501 -1.334 -8.275 -3.622 -11.938 c 0.22 1.859 0.667 3.674 0.92 5.517 c 0.166 1.219 0.221 2.504 0.028 3.713 c -0.215 1.357 -0.921 1.589 -2.013 0.767 c -0.871 -0.657 -1.654 -1.446 -2.426 -2.23 c -0.7 -0.711 -1.329 -1.5 -1.996 -2.261 c -0.248 1.285 -0.458 2.41 -0.695 3.53 c -0.077 0.381 -0.303 0.74 -0.331 1.12 c -0.104 1.253 0.083 2.577 -0.259 3.758 c -0.871 3.028 -1.968 5.991 -2.972 8.976 c -0.364 1.087 -0.739 2.173 -1.103 3.26 c 0.116 0.078 0.232 0.15 0.342 0.226 c 1.235 -0.993 2.553 -1.903 3.678 -3.006 c 2.393 -2.334 3.452 -5.468 4.781 -8.43 c 0.187 -0.42 0.452 -1.004 0.805 -1.115 c 0.998 -0.303 2.829 1.65 2.685 2.704 c -0.634 4.606 -1.34 9.202 -1.836 13.82 c -0.204 1.897 0.066 3.845 1.02 5.572 c 0.171 0.038 0.348 0.071 0.519 0.11 c 1.632 -4.767 3.269 -9.533 4.896 -14.289 c 2.349 0.806 2.862 1.451 2.779 3.686 c -0.11 2.896 -0.347 5.787 -0.413 8.689 c -0.072 3.354 -0.017 6.714 -0.017 10.074 l 0.37 0.066 c 0.231 -0.585 0.468 -1.17 0.683 -1.766 c 1.125 -3.056 2.289 -6.09 3.325 -9.174 c 0.287 -0.844 0.392 -1.876 0.193 -2.731 c -0.264 -1.203 -0.904 -2.328 -1.483 -3.713 Z M 250.793 92.4 c -0.27 0.314 -0.579 0.706 -0.915 1.076 c -1.258 1.379 -2.085 1.467 -3.684 0.568 c -1.549 -0.877 -2.393 -2.19 -2.288 -3.923 c 0.132 -2.19 0.336 -4.391 0.75 -6.543 c 0.639 -3.321 1.477 -6.604 2.233 -9.897 l -0.364 -0.166 c -0.7 1.175 -1.412 2.34 -2.101 3.52 c -2.316 3.956 -4.593 7.934 -6.953 11.867 c -0.695 1.164 -1.699 1.892 -3.303 0.723 c -0.745 7.012 -1.732 13.781 0.231 20.611 c 0.828 -1.826 1.522 -3.68 1.958 -5.588 c 0.915 -4.044 1.693 -8.116 2.52 -12.176 c 0.16 -0.778 0.32 -1.529 1.406 -1.253 c 1.004 0.254 1.864 0.491 1.709 1.92 a 81.714 81.714 0 0 0 -0.457 7.332 c -0.044 2.262 -0.16 4.574 1.042 7.25 c 3.441 -4.811 6.666 -9.313 9.87 -13.798 a 249.64 249.64 0 0 0 -1.654 -1.523 Z m -14.607 -46.608 l 0.59 0.409 c 3.402 -2.842 6.821 -5.666 10.174 -8.557 c 0.369 -0.315 0.545 -1.043 0.534 -1.572 a 43.673 43.673 0 0 0 -0.347 -4.64 c -0.436 -3.393 0.766 -6.836 -0.32 -10.212 c -0.055 -0.177 0.221 -0.442 0.221 -0.662 c 0 -0.381 0.027 -0.883 -0.188 -1.098 c -0.187 -0.188 -0.794 -0.188 -1.053 -0.022 c -1.125 0.723 -2.343 1.396 -3.259 2.345 c -2.371 2.477 -4.599 5.092 -6.936 7.712 l -1.473 -0.872 c -2.349 4.166 -4.659 8.265 -6.975 12.364 l 0.375 0.31 c 1.218 -0.9 2.443 -1.788 3.65 -2.699 c 2.746 -2.074 5.448 -4.215 8.249 -6.212 c 1.406 -1.004 2.206 -0.712 3.485 0.596 c 1.114 1.142 0.044 1.765 -0.474 2.527 c -0.309 0.452 -0.717 0.844 -0.998 1.313 c -1.759 2.979 -3.502 5.98 -5.255 8.97 Z m 17.54 0.243 c 0.342 -0.827 0.805 -1.484 0.861 -2.18 c 0.193 -2.382 0.38 -4.75 -1.098 -6.95 c -1.274 -1.893 -2.034 -4.022 -1.505 -6.411 c 0.243 -1.093 0.86 -1.462 1.632 -0.635 c 0.86 0.922 1.748 1.97 2.156 3.128 a 24.964 24.964 0 0 1 1.274 5.7 c 0.314 3.045 2.558 4.794 4.301 7.017 c 0.287 -1.098 0.529 -2.196 0.358 -3.216 c -0.546 -3.211 -1.196 -6.4 -1.897 -9.583 c -0.435 -1.97 -1.113 -3.851 -2.883 -5.109 c -0.326 -0.232 -0.53 -0.634 -0.795 -0.954 c 0.629 -0.04 1.076 0.143 1.44 0.424 c 4.896 3.73 6.65 9.628 10.024 14.642 c 0.243 -1.936 0.48 -3.712 0.69 -5.489 c 0.049 -0.436 0.209 -1.004 0.011 -1.302 c -1.644 -2.433 -2.95 -5.125 -5.492 -6.863 c -2.101 -1.434 -4.108 -3.007 -6.187 -4.48 c -0.287 -0.204 -0.723 -0.276 -1.092 -0.292 c -1.103 -0.039 -2.211 -0.011 -3.242 -0.011 c 0.705 1.092 1.494 2.311 2.294 3.547 c -2.25 1.114 -3.458 -0.348 -4.891 -1.418 c -0.034 3.123 0.099 6.107 0.242 9.092 c 0.066 1.352 0.155 2.681 1.257 3.713 c 0.204 0.188 0.221 0.745 0.122 1.07 c -0.59 1.998 0.386 4.944 2.42 6.56 Z m -31.265 2.566 a 81.06 81.06 0 0 0 -0.281 -0.265 c -1.009 0.64 -2.057 1.219 -3.016 1.925 c -4.748 3.498 -9.385 7.15 -14.237 10.488 c -2.449 1.688 -2.581 4.309 -3.673 6.576 c 0.739 -0.265 1.329 -0.634 1.93 -0.982 c 2.079 -1.18 4.274 -1.953 6.705 -1.727 c 2.912 0.27 3.358 1.192 1.825 3.67 c -2.74 4.435 -5.277 8.975 -6.749 14.018 c -0.562 1.92 -1.02 3.884 -0.529 5.986 c 1.698 -2.268 3.38 -4.519 4.621 -6.99 c 1.941 -3.879 3.589 -7.9 5.315 -11.884 c 0.149 -0.347 0.111 -1.065 -0.121 -1.252 c -1.583 -1.275 -1.412 -2.836 -0.651 -4.337 a 201.671 201.671 0 0 1 5.062 -9.356 c 1.164 -2.014 2.531 -3.917 3.799 -5.87 Z m 7.985 57.768 l -3.265 8.209 c 8.729 0.773 13.863 5.997 17.011 13.897 l 0.624 -3.387 c 1.494 -0.171 2.007 0.469 1.924 1.727 c -0.039 0.552 -0.055 1.098 -0.083 1.649 l -0.496 10.063 c 0.226 0.039 0.452 0.083 0.678 0.122 c 0.987 -3.31 1.98 -6.626 2.994 -10.041 c -3.507 -0.684 -1.395 -3.31 -2.277 -4.872 c -0.132 0.039 -0.331 0.166 -0.502 0.133 c -0.882 -0.171 -1.875 -0.204 -2.575 -0.668 c -0.264 -0.176 0.094 -1.379 0.248 -2.102 c 0.32 -1.495 0.69 -2.984 1.037 -4.474 c -1.208 0.844 -1.996 2.003 -3.093 2.549 c -0.943 0.474 -2.349 0.585 -3.342 0.248 c -1.185 -0.403 -1.037 -1.738 -0.579 -2.736 c 0.954 -2.075 2.007 -4.105 3.049 -6.141 c 0.309 -0.596 0.734 -1.131 1.23 -1.887 c -2.079 0.017 -3.264 -0.904 -3.921 -2.78 c -0.683 1.743 -1.273 3.26 -1.869 4.778 c -0.579 1.467 -1.676 1.826 -3.148 1.561 c -1.456 -0.259 -2.322 -1.153 -2.768 -2.455 c -0.359 -1.07 -0.574 -2.207 -0.877 -3.393 Z m 4.196 60.212 l -0.281 -0.414 c 0 -1.748 -0.077 -3.503 0.022 -5.246 c 0.088 -1.578 0 -3.277 1.5 -4.403 c -0.083 -2.576 -0.166 -5.158 -0.243 -7.735 c -3.005 2.864 -3.534 6.698 -4.571 10.19 c 0.424 0.855 0.777 1.722 0.91 2.621 c 0.336 2.328 0.529 4.678 0.854 7.012 c 0.177 1.252 0.508 2.488 0.772 3.729 c 0.144 0.05 0.293 0.105 0.436 0.155 c 0.077 -0.188 0.143 -0.381 0.243 -0.552 c 0.193 -0.353 0.424 -0.684 0.601 -1.042 c 1.058 -2.13 1.058 -2.13 3.468 -1.799 c 0.077 0.011 0.165 -0.061 0.248 -0.094 c 0.331 -4.088 -0.353 -6.493 -2.283 -7.762 c -0.209 1.467 -0.347 2.896 -0.656 4.292 c -0.099 0.414 -0.673 0.706 -1.02 1.048 Z m 27.24 -47.347 c -0.006 4.883 -3.535 8.419 -4.638 12.916 c -0.617 -0.171 -1.185 -0.331 -1.803 -0.502 a 767.67 767.67 0 0 1 -0.65 1.958 c -0.629 -0.127 -1.087 -0.22 -1.572 -0.32 v 3.939 c 1.097 -1.793 1.947 -3.177 2.785 -4.54 c 1.477 0.381 2.051 1.015 1.191 2.378 c -1.087 1.732 -2.112 3.503 -3.165 5.257 c -0.728 1.209 -1.462 2.411 -2.189 3.62 c 0.148 0.126 0.297 0.259 0.446 0.386 c 0.419 -0.359 0.893 -0.673 1.235 -1.093 c 0.623 -0.761 1.054 -2.113 1.759 -2.262 c 1.131 -0.237 1.379 -0.937 1.814 -1.666 c 0.491 -0.816 0.982 -1.627 1.467 -2.449 c 1.235 -2.086 2.465 -4.177 3.7 -6.262 c -0.171 -0.143 -0.336 -0.292 -0.507 -0.436 c -0.336 0.601 -0.667 1.203 -1.004 1.799 c -0.005 -0.916 0.502 -1.926 0.265 -2.157 c -0.766 -0.751 -0.331 -1.358 -0.121 -2.031 c 0.915 -2.973 1.841 -5.942 2.817 -9.097 c -0.755 0.231 -1.224 0.38 -1.83 0.562 Z m 8.91 2.285 l 0.348 0.115 c 1.4 -1.903 2.796 -3.812 4.202 -5.726 c -3.094 -1.887 -3.088 -1.887 -2.967 -5.644 c 0.022 -0.745 0.006 -1.495 0.006 -2.472 c -1.307 1.661 -2.432 3.051 -3.518 4.469 c -1.125 1.468 -2.493 2.83 -3.243 4.474 c -0.695 1.534 -0.711 3.371 -1.075 5.352 c 1.39 -1.788 2.586 -3.316 3.772 -4.85 c 0.546 -0.7 1.136 -1.109 2.023 -0.524 c 0.816 0.541 1.616 1.021 1.136 2.251 c -0.309 0.822 -0.457 1.699 -0.684 2.555 Z M 232.613 12.685 c -0.138 -0.188 -0.281 -0.375 -0.419 -0.563 l -12.633 3.068 a 1655.36 1655.36 0 0 1 -2.829 4.016 c 4.809 -0.05 8.801 -3.332 13.703 -2.085 c 0.728 -1.479 1.456 -2.957 2.178 -4.436 Z M 205.787 2.462 c -4.097 -0.182 -8.338 -0.044 -12.892 0.993 c 1.411 1.114 1.913 2.157 0.033 3.498 c 5.012 -0.425 9.462 -0.806 13.868 -1.18 l -1.009 -3.311 Z m 55.262 72.808 l -0.496 -0.116 c -1.908 6.14 -3.821 12.275 -5.757 18.498 c 0.441 0.144 1.23 0.409 2.14 0.706 c 2.067 -6.272 3.964 -12.49 4.113 -19.088 Z m -18.351 66.121 a 2593.74 2593.74 0 0 1 -5.448 4.645 c 0.64 4.237 1.18 7.834 1.721 11.431 c 0.402 -0.364 0.628 -0.756 0.672 -1.164 c 0.182 -1.738 0.348 -3.487 0.43 -5.23 c 0.056 -1.125 0.353 -1.821 1.666 -1.666 c 0.342 0.038 0.722 -0.232 1.367 -0.458 c -3.231 -1.142 -3.259 -1.186 -2.029 -3.967 c 0.579 -1.302 1.175 -2.593 1.621 -3.591 Z m -8.31 -125.148 c 0.315 -0.226 0.894 -0.783 1.588 -1.086 c 0.695 -0.31 1.655 -0.712 2.228 -0.464 c 1.114 0.491 1.88 1.495 1.577 2.913 l -0.661 3.117 l 5.514 -3.464 c -1.202 -0.458 -2.531 -0.811 -3.711 -1.446 c -1.412 -0.761 -2.609 -1.964 -4.064 -2.598 c -1.677 -0.729 -3.336 -1.23 -3.11 -3.487 h -3.254 c 1.153 1.037 2.377 1.754 3.011 2.825 c 0.612 1.037 0.612 2.438 0.882 3.69 Z m 10.61 37.157 c 0.082 0.05 0.159 0.1 0.242 0.15 c 2.41 -2.285 4.825 -4.569 7.301 -6.908 c -0.893 -1.01 -1.869 -2.113 -2.989 -3.382 c -1.56 3.465 -3.06 6.803 -4.554 10.14 Z m 4.389 72.311 c 2.928 -2.863 2.106 -6.901 3.176 -10.576 c -2.79 3.173 -4.836 6.384 -3.176 10.576 Z M 193.264 4.823 c -1.808 -0.254 -8.751 1.733 -10.719 3.134 c 2.779 -0.26 5.288 -0.618 7.808 -0.69 c 1.693 -0.044 2.558 -0.756 2.911 -2.444 Z m 48.243 113.038 c 3.325 -3.586 5.707 -7.785 7.913 -12.088 c -3.215 3.652 -6.545 7.227 -7.913 12.088 Z m 9.887 8.38 c 3.005 0.497 1.516 2.836 1.93 4.386 c 0.121 -0.011 0.242 -0.016 0.364 -0.028 v -9.075 a 2.198 2.198 0 0 1 -0.193 -0.039 l -2.101 4.756 Z m 7.968 -8.915 c -0.138 -0.078 -0.281 -0.149 -0.419 -0.227 c -0.668 0.85 -1.208 1.86 -2.03 2.522 c -1.676 1.351 -1.51 3.017 -1.202 4.976 c 1.274 -2.532 2.465 -4.905 3.651 -7.271 Z M 177.125 5.215 c 0.044 0.171 0.088 0.337 0.126 0.508 c 2.802 -0.762 5.603 -1.518 8.404 -2.279 c -0.039 -0.132 -0.072 -0.27 -0.11 -0.403 c -3.066 -0.27 -5.719 1.06 -8.42 2.174 Z m 77.147 90.694 c -1.147 1.616 -2.101 2.973 -3.165 4.468 c 2.52 0.067 3.402 -1.18 3.165 -4.468 Z m 22.492 -40.418 c -0.165 0.028 -0.331 0.06 -0.496 0.089 c 0.64 2.118 1.274 4.242 1.913 6.36 c 0.094 -0.027 0.188 -0.049 0.282 -0.077 c -0.563 -2.124 -1.131 -4.248 -1.699 -6.372 Z m -31.314 88.095 c -1.605 -0.606 -1.958 -0.226 -2.184 2.345 c 0.827 -0.894 1.472 -1.583 2.184 -2.345 Z m 21.604 249.037 c 0.369 -1.782 0.639 -3.503 1.086 -5.181 a 369.05 369.05 0 0 1 2.956 -10.548 c 0.92 -3.123 1.124 -6.295 0.876 -9.517 c -0.071 -0.943 -0.143 -1.881 -0.22 -2.979 c 1.621 0.028 2.481 0.844 3.066 2.091 c 1.869 4.016 1.709 8.143 0.744 12.347 c -1.241 5.412 -2.492 10.824 -3.551 16.275 c -0.314 1.605 0.027 3.338 0.044 5.015 c 0.044 3.509 0.11 7.029 -1.323 10.333 c -0.315 0.728 -0.783 1.848 -1.952 0.668 c -0.193 -0.193 -0.745 -0.05 -1.125 -0.028 c -0.844 0.061 -1.693 0.232 -2.537 0.21 c -4.361 -0.121 -5.657 -1.297 -6.611 -5.605 c -0.899 -4.061 -0.656 -7.95 1.334 -11.658 c 1.142 -2.129 2.09 -2.615 4.489 -2.19 c 0.827 0.138 1.626 0.452 2.724 0.767 Z m -3.204 0.541 c -0.088 0.099 -0.21 0.198 -0.276 0.325 c -2.669 4.993 -2.145 10.03 -0.121 15.056 c 0.176 0.436 0.601 0.794 0.97 1.12 c 0.728 0.634 1.329 0.612 1.991 -0.248 c 1.037 -1.352 1.45 -2.787 1.23 -4.475 c -0.364 -2.824 -0.739 -5.655 -0.916 -8.496 c -0.171 -2.775 -0.11 -2.841 -2.878 -3.282 Z m -15.952 -2.544 c 0.794 -5.274 1.66 -10.405 2.305 -15.558 c 0.358 -2.885 -1.031 -4.926 -3.772 -5.919 c -2.465 -0.894 -4.985 -1.628 -7.802 -2.533 c 0.81 -0.105 1.488 -0.391 2.045 -0.231 c 3.314 0.937 6.744 1.655 9.86 3.056 c 3.65 1.638 5.028 4.375 4.521 8.264 c -0.568 4.364 -1.004 8.75 -1.428 13.131 a 12.186 12.186 0 0 0 0.127 3.293 c 0.595 3.355 0.27 6.715 -0.441 9.948 c -0.442 2.013 -1.693 3.933 -2.906 5.665 c -1.048 1.49 -4.522 1.479 -6.413 0.183 c -2.096 -1.44 -3.524 -3.41 -4.059 -5.926 c -0.783 -3.668 -0.827 -7.249 1.351 -10.57 c 1.23 -1.881 2.835 -2.913 5.117 -2.803 c 0.53 0.022 1.07 0 1.495 0 Z m -0.502 18.785 c 0.761 -1.252 1.417 -2.366 2.101 -3.459 c 0.81 -1.296 1.014 -2.587 0.623 -4.137 c -0.7 -2.759 -1.213 -5.573 -1.693 -8.381 c -0.182 -1.076 -0.64 -1.969 -1.66 -1.991 c -0.667 -0.017 -1.555 0.562 -2.007 1.136 c -2.178 2.792 -2.084 6.058 -1.665 9.34 c 0.369 2.969 1.753 5.379 4.301 7.492 Z"></path></g>
<path d="M399.805 407.348c-6.776-6.504-13.311-13.318-21.494-18.184-3.005-1.787-5.194-1.649-7.681.9-1.218 1.252-2.365 2.57-3.573 3.834-.656.684-.739 1.39-.231 2.174.38.584.738 1.197 1.196 1.726 2.134 2.455 4.246 4.933 6.474 7.299.838.889.634 1.319-.16 2.009-1.583 1.379-3.138 2.797-4.582 4.314-.734.772-1.169.794-1.941.077-4.329-4.016-8.718-7.966-13.063-11.972-2.708-2.499-5.922-4.38-8.498-7.034-.413-.425-.799-.988-1.317-1.197-3-1.225-5.316-3.426-7.83-5.341-.8-.606-1.048-1.23-.723-2.179 1.439-4.165 1.732-8.512 2.074-13.561.231-1.241-.199-3.106-.723-4.937-.788-2.731-1.059-5.644-2.63-8.105-1.301-2.041-3.364-3.415-4.863-5.296a4.974 4.974 0 0 0-1.197-1.059c-2.934-1.937-6.336-2.726-9.528-3.989-3.171-1.258-6.628-.916-9.959-1.208-5.486-.48-10.857.733-15.533 3.266-8.453 4.584-12.131 12.551-13.261 21.825-.458 3.74.788 7.349.953 11.051.265 5.936 4.009 9.952 7.814 13.913.27.282.684.414 1.015.629 2.845 1.837 6.175 2.279 9.307 3.294 8.332 2.709 16.471 2.196 24.417-1.412.805-.365 1.34-.359 2.029.187 5.497 4.353 10.984 8.728 16.167 13.44 8.668 7.872 16.978 16.153 26.137 23.474 2.928 2.34 6.066 4.43 9.49 6.025 1.963.916 4.091.75 5.801-.27 3.744-2.235 5.696-6.935 3.236-11.481-1.847-3.415-4.51-6.135-7.532-8.48-1.152-.899-.981-1.49-.071-2.328 1.262-1.164 2.376-2.444 2.817-4.176.309-1.225.761-1.032 1.61-.32 2.068 1.726 4.158 3.47 6.435 4.899 1.45.91 3.226 1.329 4.891 1.864.778.249 1.594.033 2.311-.402 4.543-2.77 7.008-8.668 2.216-13.269zm-94.638-45.752c2.211-.303 4.422-.607 6.639-.916.292.05.59.105.882.155 1.941.943 3.959 1.886 5.018 3.872 2.746 5.159 2.796 10.466.347 15.729-1.306 2.809-4.212 3.78-6.826 4.381-2.845.662-5.751-.265-8.238-2.036-3.237-2.3-4.875-5.208-4.307-9.373.541-3.967 1.792-7.558 4.114-10.791.391-.232.777-.464 1.169-.696.248.067.458.017.617-.193l.585-.132z" fill="#FAD24B"></path></svg>